<svg xmlns="http://www.w3.org/2000/svg" viewBox="0 0 64 64" fill="none" stroke="#0088cc" stroke-width="3.5" stroke-linecap="round" stroke-linejoin="round" aria-label="Sharkbox favicon">
  <path d="M8 36 C15 32 23 28 33 28 C35 26 39 23 43 20 C41 24 40 27 39 30 C46 30 52 32 56 36 C52 36 50 37.5 48 38.5 C46 39.5 44 41 41 41 C33 41 25 39 18 39 C14 39 11 37.8 8 36" />
  <path d="M48 38.5 C44 40 40 40.5 36 40.5 C28 40.5 22 38.5 16 38" />
  <path d="M32 36 C30.5 36.8 29.2 37.8 28 39" />
  <path d="M8 36 L6 33 M8 36 L6 39" />
  <circle cx="42.5" cy="28.5" r="1.4" />
  <path d="M44 34 C43 34.8 42 35.1 41 35.2" />
</svg>

